HIERARCHY
ROOT mixamorig:Hips
{
	OFFSET -0.000008 104.274872 1.554316
	CHANNELS 6 Xposition Yposition Zposition Xrotation Yrotation Zrotation
	JOINT mixamorig:Spine
	{
		OFFSET -0.000005 10.181595 0.131519
		CHANNELS 6 Xposition Yposition Zposition Xrotation Yrotation Zrotation
		JOINT mixamorig:Spine1
		{
			OFFSET -0.000000 9.893959 -1.470707
			CHANNELS 6 Xposition Yposition Zposition Xrotation Yrotation Zrotation
			JOINT mixamorig:Spine2
			{
				OFFSET -0.000000 9.220757 -1.370641
				CHANNELS 6 Xposition Yposition Zposition Xrotation Yrotation Zrotation
				JOINT mixamorig:Neck
				{
					OFFSET 0.000001 16.740417 -2.049036
					CHANNELS 6 Xposition Yposition Zposition Xrotation Yrotation Zrotation
					JOINT mixamorig:Head
					{
						OFFSET 0.000000 9.617874 1.685006
						CHANNELS 6 Xposition Yposition Zposition Xrotation Yrotation Zrotation
						JOINT mixamorig:HeadTop_End
						{
							OFFSET 0.000002 22.037354 7.501101
							CHANNELS 6 Xposition Yposition Zposition Xrotation Yrotation Zrotation
							End Site
							{
								OFFSET 0.000168 2310.654297 -282.823242
							}
						}
					}
				}
				JOINT mixamorig:RightShoulder
				{
					OFFSET -4.569970 11.014908 -2.160885
					CHANNELS 6 Xposition Yposition Zposition Xrotation Yrotation Zrotation
					JOINT mixamorig:RightArm
					{
						OFFSET -10.592851 -0.524811 -2.232101
						CHANNELS 6 Xposition Yposition Zposition Xrotation Yrotation Zrotation
						JOINT mixamorig:RightForeArm
						{
							OFFSET -27.841511 0.000031 -0.000004
							CHANNELS 6 Xposition Yposition Zposition Xrotation Yrotation Zrotation
							JOINT mixamorig:RightHand
							{
								OFFSET -28.328831 -0.000015 0.000015
								CHANNELS 6 Xposition Yposition Zposition Xrotation Yrotation Zrotation
								JOINT mixamorig:RightHandThumb1
								{
									OFFSET -2.464806 -1.573990 2.681852
									CHANNELS 6 Xposition Yposition Zposition Xrotation Yrotation Zrotation
									JOINT mixamorig:RightHandThumb2
									{
										OFFSET -3.215179 -1.872803 1.924282
										CHANNELS 6 Xposition Yposition Zposition Xrotation Yrotation Zrotation
										JOINT mixamorig:RightHandThumb3
										{
											OFFSET -2.654831 -1.527969 1.512609
											CHANNELS 6 Xposition Yposition Zposition Xrotation Yrotation Zrotation
											JOINT mixamorig:RightHandThumb4
											{
												OFFSET -2.018814 -1.152008 1.108052
												CHANNELS 6 Xposition Yposition Zposition Xrotation Yrotation Zrotation
												End Site
												{
													OFFSET -188.809540 -114.533607 132.431396
												}
											}
										}
									}
								}
								JOINT mixamorig:RightHandIndex1
								{
									OFFSET -9.108284 -0.517868 2.259835
									CHANNELS 6 Xposition Yposition Zposition Xrotation Yrotation Zrotation
									JOINT mixamorig:RightHandIndex2
									{
										OFFSET -3.699989 0.000000 0.001215
										CHANNELS 6 Xposition Yposition Zposition Xrotation Yrotation Zrotation
										JOINT mixamorig:RightHandIndex3
										{
											OFFSET -2.850006 0.000031 -0.000522
											CHANNELS 6 Xposition Yposition Zposition Xrotation Yrotation Zrotation
											JOINT mixamorig:RightHandIndex4
											{
												OFFSET -2.772186 -0.000015 -0.000020
												CHANNELS 6 Xposition Yposition Zposition Xrotation Yrotation Zrotation
												End Site
												{
													OFFSET -277.218445 0.000000 -0.050231
												}
											}
										}
									}
								}
								JOINT mixamorig:RightHandMiddle1
								{
									OFFSET -9.532516 -0.000031 -0.000023
									CHANNELS 6 Xposition Yposition Zposition Xrotation Yrotation Zrotation
									JOINT mixamorig:RightHandMiddle2
									{
										OFFSET -3.700005 -0.000015 0.003713
										CHANNELS 6 Xposition Yposition Zposition Xrotation Yrotation Zrotation
										JOINT mixamorig:RightHandMiddle3
										{
											OFFSET -2.949974 0.000015 -0.002054
											CHANNELS 6 Xposition Yposition Zposition Xrotation Yrotation Zrotation
											JOINT mixamorig:RightHandMiddle4
											{
												OFFSET -2.946640 0.000000 -0.000156
												CHANNELS 6 Xposition Yposition Zposition Xrotation Yrotation Zrotation
												End Site
												{
													OFFSET -294.664337 0.000000 -0.113670
												}
											}
										}
									}
								}
								JOINT mixamorig:RightHandRing1
								{
									OFFSET -9.103600 -0.043076 -1.865134
									CHANNELS 6 Xposition Yposition Zposition Xrotation Yrotation Zrotation
									JOINT mixamorig:RightHandRing2
									{
										OFFSET -3.379288 0.000000 -0.001055
										CHANNELS 6 Xposition Yposition Zposition Xrotation Yrotation Zrotation
										JOINT mixamorig:RightHandRing3
										{
											OFFSET -2.889687 -0.000015 0.000379
											CHANNELS 6 Xposition Yposition Zposition Xrotation Yrotation Zrotation
											JOINT mixamorig:RightHandRing4
											{
												OFFSET -2.638809 -0.000015 0.000941
												CHANNELS 6 Xposition Yposition Zposition Xrotation Yrotation Zrotation
												End Site
												{
													OFFSET -263.880371 0.000000 0.516020
												}
											}
										}
									}
								}
								JOINT mixamorig:RightHandPinky1
								{
									OFFSET -8.076683 -0.486710 -3.806280
									CHANNELS 6 Xposition Yposition Zposition Xrotation Yrotation Zrotation
									JOINT mixamorig:RightHandPinky2
									{
										OFFSET -3.600014 -0.000015 -0.003747
										CHANNELS 6 Xposition Yposition Zposition Xrotation Yrotation Zrotation
										JOINT mixamorig:RightHandPinky3
										{
											OFFSET -2.099983 0.000000 -0.005739
											CHANNELS 6 Xposition Yposition Zposition Xrotation Yrotation Zrotation
											JOINT mixamorig:RightHandPinky4
											{
												OFFSET -2.115768 -0.000031 -0.003680
												CHANNELS 6 Xposition Yposition Zposition Xrotation Yrotation Zrotation
												End Site
												{
													OFFSET -211.577087 0.000000 -0.350686
												}
											}
										}
									}
								}
							}
						}
					}
				}
				JOINT mixamorig:LeftShoulder
				{
					OFFSET 4.570447 11.014725 -2.160855
					CHANNELS 6 Xposition Yposition Zposition Xrotation Yrotation Zrotation
					JOINT mixamorig:LeftArm
					{
						OFFSET 10.592371 -0.524597 -2.232119
						CHANNELS 6 Xposition Yposition Zposition Xrotation Yrotation Zrotation
						JOINT mixamorig:LeftForeArm
						{
							OFFSET 27.841532 -0.000031 0.000026
							CHANNELS 6 Xposition Yposition Zposition Xrotation Yrotation Zrotation
							JOINT mixamorig:LeftHand
							{
								OFFSET 28.328846 -0.000061 0.000022
								CHANNELS 6 Xposition Yposition Zposition Xrotation Yrotation Zrotation
								JOINT mixamorig:LeftHandThumb1
								{
									OFFSET 2.466141 -1.576172 2.681732
									CHANNELS 6 Xposition Yposition Zposition Xrotation Yrotation Zrotation
									JOINT mixamorig:LeftHandThumb2
									{
										OFFSET 3.217812 -1.872070 1.916482
										CHANNELS 6 Xposition Yposition Zposition Xrotation Yrotation Zrotation
										JOINT mixamorig:LeftHandThumb3
										{
											OFFSET 2.656029 -1.528778 1.514513
											CHANNELS 6 Xposition Yposition Zposition Xrotation Yrotation Zrotation
											JOINT mixamorig:LeftHandThumb4
											{
												OFFSET 2.020889 -1.154053 1.115139
												CHANNELS 6 Xposition Yposition Zposition Xrotation Yrotation Zrotation
												End Site
												{
													OFFSET 190.885437 -115.081749 130.048782
												}
											}
										}
									}
								}
								JOINT mixamorig:LeftHandIndex1
								{
									OFFSET 9.109314 -0.518021 2.259871
									CHANNELS 6 Xposition Yposition Zposition Xrotation Yrotation Zrotation
									JOINT mixamorig:LeftHandIndex2
									{
										OFFSET 3.699989 0.000000 -0.000322
										CHANNELS 6 Xposition Yposition Zposition Xrotation Yrotation Zrotation
										JOINT mixamorig:LeftHandIndex3
										{
											OFFSET 2.850006 0.000000 0.000352
											CHANNELS 6 Xposition Yposition Zposition Xrotation Yrotation Zrotation
											JOINT mixamorig:LeftHandIndex4
											{
												OFFSET 2.774864 -0.000031 -0.000027
												CHANNELS 6 Xposition Yposition Zposition Xrotation Yrotation Zrotation
												End Site
												{
													OFFSET 277.486267 0.000000 -0.009857
												}
											}
										}
									}
								}
								JOINT mixamorig:LeftHandMiddle1
								{
									OFFSET 9.533394 0.000061 0.000044
									CHANNELS 6 Xposition Yposition Zposition Xrotation Yrotation Zrotation
									JOINT mixamorig:LeftHandMiddle2
									{
										OFFSET 3.699989 -0.000015 -0.000231
										CHANNELS 6 Xposition Yposition Zposition Xrotation Yrotation Zrotation
										JOINT mixamorig:LeftHandMiddle3
										{
											OFFSET 2.949997 -0.000015 -0.000059
											CHANNELS 6 Xposition Yposition Zposition Xrotation Yrotation Zrotation
											JOINT mixamorig:LeftHandMiddle4
											{
												OFFSET 2.952896 0.000031 0.000063
												CHANNELS 6 Xposition Yposition Zposition Xrotation Yrotation Zrotation
												End Site
												{
													OFFSET 295.289337 0.000000 0.022810
												}
											}
										}
									}
								}
								JOINT mixamorig:LeftHandRing1
								{
									OFFSET 9.104523 -0.042999 -1.865074
									CHANNELS 6 Xposition Yposition Zposition Xrotation Yrotation Zrotation
									JOINT mixamorig:LeftHandRing2
									{
										OFFSET 3.150009 -0.000031 0.000043
										CHANNELS 6 Xposition Yposition Zposition Xrotation Yrotation Zrotation
										JOINT mixamorig:LeftHandRing3
										{
											OFFSET 2.949982 -0.000015 0.000040
											CHANNELS 6 Xposition Yposition Zposition Xrotation Yrotation Zrotation
											JOINT mixamorig:LeftHandRing4
											{
												OFFSET 2.644348 0.000000 0.000057
												CHANNELS 6 Xposition Yposition Zposition Xrotation Yrotation Zrotation
												End Site
												{
													OFFSET 264.434631 0.000000 0.012105
												}
											}
										}
									}
								}
								JOINT mixamorig:LeftHandPinky1
								{
									OFFSET 8.077789 -0.486847 -3.806259
									CHANNELS 6 Xposition Yposition Zposition Xrotation Yrotation Zrotation
									JOINT mixamorig:LeftHandPinky2
									{
										OFFSET 3.599953 0.000031 0.014727
										CHANNELS 6 Xposition Yposition Zposition Xrotation Yrotation Zrotation
										JOINT mixamorig:LeftHandPinky3
										{
											OFFSET 2.100021 0.000015 0.007705
											CHANNELS 6 Xposition Yposition Zposition Xrotation Yrotation Zrotation
											JOINT mixamorig:LeftHandPinky4
											{
												OFFSET 2.125504 0.000031 0.007517
												CHANNELS 6 Xposition Yposition Zposition Xrotation Yrotation Zrotation
												End Site
												{
													OFFSET 212.550781 0.000000 0.625752
												}
											}
										}
									}
								}
							}
						}
					}
				}
			}
		}
	}
	JOINT mixamorig:RightUpLeg
	{
		OFFSET -8.207787 -6.751648 -1.599560
		CHANNELS 6 Xposition Yposition Zposition Xrotation Yrotation Zrotation
		JOINT mixamorig:RightLeg
		{
			OFFSET -0.000002 -44.370117 0.345942
			CHANNELS 6 Xposition Yposition Zposition Xrotation Yrotation Zrotation
			JOINT mixamorig:RightFoot
			{
				OFFSET 0.000003 -44.423679 -3.043532
				CHANNELS 6 Xposition Yposition Zposition Xrotation Yrotation Zrotation
				JOINT mixamorig:RightToeBase
				{
					OFFSET -0.000002 -8.728671 10.710558
					CHANNELS 6 Xposition Yposition Zposition Xrotation Yrotation Zrotation
					JOINT mixamorig:RightToe_End
					{
						OFFSET -0.000001 -0.000679 9.278119
						CHANNELS 6 Xposition Yposition Zposition Xrotation Yrotation Zrotation
						End Site
						{
							OFFSET 0.000000 -0.067690 927.812134
						}
					}
				}
			}
		}
	}
	JOINT mixamorig:LeftUpLeg
	{
		OFFSET 8.207793 -6.751686 -1.599556
		CHANNELS 6 Xposition Yposition Zposition Xrotation Yrotation Zrotation
		JOINT mixamorig:LeftLeg
		{
			OFFSET -0.000004 -44.370014 0.346954
			CHANNELS 6 Xposition Yposition Zposition Xrotation Yrotation Zrotation
			JOINT mixamorig:LeftFoot
			{
				OFFSET -0.000001 -44.423672 -3.044401
				CHANNELS 6 Xposition Yposition Zposition Xrotation Yrotation Zrotation
				JOINT mixamorig:LeftToeBase
				{
					OFFSET -0.000002 -8.728669 10.710558
					CHANNELS 6 Xposition Yposition Zposition Xrotation Yrotation Zrotation
					JOINT mixamorig:LeftToe_End
					{
						OFFSET -0.000003 -0.000679 9.278133
						CHANNELS 6 Xposition Yposition Zposition Xrotation Yrotation Zrotation
						End Site
						{
							OFFSET 0.000000 -0.068021 927.813477
						}
					}
				}
			}
		}
	}
}
MOTION
Frames: 3
Frame Time: 0.033333
0.000006 104.270477 1.554256 0.000010 0.000003 -0.000113 -0.000005 10.181587 0.131522 0.000001 -0.000003 0.000084 -0.000000 9.893967 -1.470711 0.000001 0.000000 -0.000000 -0.000000 9.220802 -1.370642 0.000000 -0.000000 -0.000000 0.000001 16.740433 -2.049030 0.000000 -0.000000 -0.000000 0.000000 9.617859 1.685014 0.000000 0.000000 0.000000 0.000002 22.037384 7.501101 0.000000 -0.000000 0.000000 -4.569968 11.014880 -2.160881 0.000008 0.000001 -0.000038 -10.592875 -0.524760 -2.231915 78.009161 28.217858 -23.013093 -27.841524 0.000017 0.000536 -56.405536 109.544165 74.426556 -28.328821 0.000023 0.000026 -0.000323 -0.000044 0.000007 -2.464442 -1.573853 2.682365 -37.673356 -159.002706 13.664429 -3.215288 -1.872590 1.924668 157.714546 31.718524 2.281738 -2.654960 -1.527892 1.513105 149.783262 25.662540 -42.945760 -2.018827 -1.152017 1.108051 -0.000000 -0.000004 0.000002 -9.108398 -0.517563 2.260108 95.167047 17.087031 -18.725935 -3.700065 0.000320 0.001501 92.129013 14.015610 -14.516148 -2.850080 0.000367 -0.000278 91.076918 11.263109 -11.474465 -2.772158 -0.000015 -0.000016 -0.000003 0.000001 -0.000002 -9.532606 0.000276 0.000215 90.218049 14.104926 -14.298306 -3.700072 0.000322 0.003944 88.373700 11.327990 -10.921647 -2.950065 0.000338 -0.001846 88.581154 11.233892 -10.953885 -2.946611 0.000002 -0.000155 0.000001 0.000000 0.000001 -9.103704 -0.042745 -1.864897 88.386985 16.122153 -15.637136 -3.379336 0.000321 -0.000832 87.623261 9.848754 -9.466999 -2.889740 0.000341 0.000593 91.250665 7.337874 -7.546151 -2.638800 -0.000000 0.000942 0.000003 0.000002 -0.000001 -8.076752 -0.486384 -3.806052 79.520846 16.215269 -13.393281 -3.600040 0.000278 -0.003554 80.758593 7.551668 -6.125566 -2.100010 0.000298 -0.005516 83.806592 4.876983 -4.182020 -2.115757 -0.000052 -0.003674 0.000001 -0.000002 -0.000005 4.570446 11.014691 -2.160851 -0.000018 0.000010 -0.000021 10.592382 -0.524493 -2.232321 72.611413 -5.518394 4.056042 27.841820 0.000088 -0.000211 91.801970 -68.295936 69.980103 28.328848 -0.000029 0.000014 0.000020 -0.000089 -0.000000 2.466148 -1.576169 2.681880 -13.552908 157.130100 -59.255361 3.217830 -1.871783 1.916389 164.501951 -27.079195 20.113553 2.656098 -1.528672 1.514480 134.974182 -29.162418 56.708786 2.020887 -1.154079 1.115156 0.000004 0.000002 0.000004 9.109369 -0.517877 2.259732 81.055228 -18.077426 15.478237 3.700038 0.000117 -0.000451 76.776387 -17.687149 14.068431 2.850045 0.000153 0.000219 73.956865 -14.356016 10.833061 2.774863 -0.000000 -0.000029 0.000000 0.000003 0.000000 9.533463 0.000191 -0.000090 79.564416 -16.460723 13.727324 3.700063 0.000154 -0.000363 81.934348 -15.842538 13.774889 2.950079 0.000142 -0.000190 80.751721 -18.748015 15.984232 2.952863 0.000001 0.000062 -0.000000 -0.000000 -0.000002 9.104580 -0.042871 -1.865229 75.891250 -14.631636 11.434978 3.150033 0.000178 -0.000078 83.052402 -13.409831 11.888279 2.950045 0.000149 -0.000064 84.729282 -15.331218 13.997668 2.644323 0.000032 0.000058 0.000000 0.000000 0.000001 8.077826 -0.486753 -3.806409 66.904148 -15.482830 10.658579 3.599988 0.000138 0.014560 69.107690 -13.118492 9.411618 2.100049 0.000160 0.007524 74.839783 -13.289759 10.565317 2.125497 -0.000014 0.007513 -0.000002 0.000001 -0.000000 -8.207786 -6.751667 -1.599560 -0.077001 -0.000003 0.000080 -0.000002 -44.370110 0.345938 0.153719 -0.000000 -0.000000 0.000000 -44.423679 -3.043532 -0.076700 0.000000 -0.000002 -0.000006 -8.728667 10.710559 -0.000009 -0.000000 -0.000000 -0.000001 -0.000679 9.278123 0.000000 -0.000000 -0.000000 8.207792 -6.751710 -1.599556 -0.074518 -0.000003 0.000081 -0.000002 -44.370014 0.346960 0.148822 0.000002 0.000000 -0.000001 -44.423664 -3.044403 -0.074314 0.000000 -0.000002 -0.000004 -8.728671 10.710558 0.000007 -0.000000 -0.000000 0.000000 -0.000680 9.278137 -0.000000 0.000000 -0.000001 
0.000006 104.270477 1.554256 0.000010 0.000003 -0.000113 -0.000005 10.181587 0.131522 0.000001 -0.000003 0.000084 -0.000000 9.893967 -1.470711 0.000001 0.000000 -0.000000 -0.000000 9.220802 -1.370642 0.000000 -0.000000 -0.000000 0.000001 16.740433 -2.049030 0.000000 -0.000000 -0.000000 0.000000 9.617859 1.685014 0.000000 0.000000 0.000000 0.000002 22.037384 7.501101 0.000000 -0.000000 0.000000 -4.569968 11.014880 -2.160881 0.000008 0.000001 -0.000038 -10.592876 -0.524755 -2.231909 77.853406 26.956383 -21.911510 -27.841522 0.000016 0.000542 -51.910462 107.696469 67.347571 -28.328833 0.000005 0.000022 -0.000318 -0.000046 0.000006 -2.464417 -1.573749 2.682321 -50.344498 -166.766582 -16.532492 -3.215269 -1.872555 1.924640 151.732420 33.062251 16.605122 -2.654971 -1.527894 1.513079 148.722875 26.928458 -33.937803 -2.018827 -1.151998 1.108064 -0.000003 -0.000002 0.000005 -9.108375 -0.517553 2.260102 95.926510 16.267858 -18.067860 -3.700073 0.000313 0.001494 92.394892 13.858276 -14.419194 -2.850096 0.000363 -0.000286 90.527730 11.371538 -11.475128 -2.772162 -0.000015 -0.000019 -0.000001 -0.000000 -0.000001 -9.532581 0.000267 0.000223 89.783376 14.938235 -15.022805 -3.700071 0.000325 0.003946 89.025225 11.843072 -11.551827 -2.950072 0.000344 -0.001817 90.997873 11.325707 -11.516166 -2.946611 -0.000000 -0.000155 0.000007 -0.000000 0.000001 -9.103688 -0.042759 -1.864892 87.890321 17.409281 -16.745684 -3.379314 0.000300 -0.000837 86.746824 9.074308 -8.591382 -2.889763 0.000344 0.000629 93.111201 6.377380 -6.780335 -2.638801 -0.000000 0.000943 -0.000001 0.000001 0.000003 -8.076762 -0.486394 -3.806049 81.393971 19.068242 -16.305798 -3.600039 0.000272 -0.003559 80.468248 7.299024 -5.881251 -2.100015 0.000319 -0.005527 82.996682 3.207929 -2.650829 -2.115772 -0.000054 -0.003676 0.000002 0.000003 -0.000008 4.570446 11.014691 -2.160851 -0.000018 0.000010 -0.000021 10.592380 -0.524495 -2.232328 72.735190 -4.752334 3.500586 27.841818 0.000070 -0.000194 92.420471 -71.420187 73.730219 28.328833 -0.000029 0.000026 0.000019 -0.000089 -0.000000 2.466234 -1.575870 2.681810 25.851030 193.964941 -146.453326 3.217751 -1.872031 1.916568 158.231045 2.302794 115.521681 2.656085 -1.528744 1.514561 146.444037 -21.482987 85.261490 2.020914 -1.154081 1.115153 0.000000 -0.000001 0.000002 9.109414 -0.517872 2.259765 89.831823 -25.969084 25.882204 3.700038 0.000136 -0.000437 84.688451 -17.481142 15.968383 2.850045 0.000198 0.000193 82.171615 -12.081085 10.541946 2.774879 -0.000046 -0.000028 -0.000001 0.000001 0.000000 9.533485 0.000169 -0.000059 85.413961 -24.683798 22.826199 3.700065 0.000169 -0.000365 87.692129 -13.499020 12.967962 2.950055 0.000189 -0.000218 87.380468 -11.310034 10.810246 2.952849 -0.000031 0.000058 0.000001 0.000001 0.000001 9.104593 -0.042882 -1.865194 80.061633 -23.167076 19.540461 3.150060 0.000179 -0.000088 87.582635 -15.401597 14.774112 2.950021 0.000172 -0.000088 87.985677 -11.628886 11.231385 2.644325 0.000045 0.000063 -0.000001 0.000002 -0.000000 8.077856 -0.486762 -3.806387 69.307780 -23.206997 16.602125 3.600004 0.000143 0.014588 68.843293 -18.988247 13.455569 2.100016 0.000153 0.007557 71.370388 -13.978682 10.423078 2.125507 -0.000015 0.007515 0.000002 -0.000004 -0.000001 -8.207786 -6.751667 -1.599560 -0.077001 -0.000003 0.000080 -0.000002 -44.370110 0.345938 0.153719 -0.000000 -0.000000 0.000000 -44.423679 -3.043532 -0.076700 0.000000 -0.000002 -0.000006 -8.728667 10.710559 -0.000009 -0.000000 -0.000000 -0.000001 -0.000679 9.278123 0.000000 -0.000000 -0.000000 8.207792 -6.751710 -1.599556 -0.074518 -0.000003 0.000081 -0.000002 -44.370014 0.346960 0.148822 0.000002 0.000000 -0.000001 -44.423664 -3.044403 -0.074314 0.000000 -0.000002 -0.000004 -8.728671 10.710558 0.000007 -0.000000 -0.000000 0.000000 -0.000680 9.278137 -0.000000 0.000000 -0.000001 
0.000006 104.270477 1.554256 0.000010 0.000003 -0.000113 -0.000005 10.181587 0.131522 0.000001 -0.000003 0.000084 -0.000000 9.893967 -1.470711 0.000001 0.000000 -0.000000 -0.000000 9.220802 -1.370642 0.000000 -0.000000 -0.000000 0.000001 16.740433 -2.049030 0.000000 -0.000000 -0.000000 0.000000 9.617859 1.685014 0.000000 0.000000 0.000000 0.000002 22.037384 7.501101 0.000000 -0.000000 0.000000 -4.569968 11.014880 -2.160881 0.000008 0.000001 -0.000038 -10.592866 -0.524776 -2.231893 77.638897 31.275672 -25.384296 -27.841520 0.000013 0.000547 -50.709223 106.643521 64.932409 -28.328821 0.000006 0.000027 -0.000321 -0.000038 0.000006 -2.464443 -1.573760 2.682305 -50.256423 -166.424048 -16.266077 -3.215275 -1.872558 1.924633 151.858751 33.002600 16.000017 -2.654971 -1.527900 1.513079 148.464735 26.929742 -34.346170 -2.018827 -1.151987 1.108070 -0.000004 -0.000003 0.000002 -9.108392 -0.517557 2.260099 95.321000 16.431767 -18.059319 -3.700059 0.000310 0.001485 92.002464 13.886022 -14.350426 -2.850081 0.000370 -0.000287 90.212428 11.359516 -11.400500 -2.772162 -0.000018 -0.000021 0.000000 -0.000001 -0.000001 -9.532590 0.000273 0.000219 89.504424 15.157414 -15.168330 -3.700053 0.000347 0.003946 88.863398 11.760049 -11.438121 -2.950055 0.000325 -0.001811 90.936333 11.247708 -11.424630 -2.946630 0.000001 -0.000152 -0.000001 0.000002 -0.000001 -9.103714 -0.042765 -1.864893 86.894548 17.561318 -16.605146 -3.379326 0.000303 -0.000844 86.778230 8.757137 -8.296005 -2.889756 0.000355 0.000622 93.537740 6.011593 -6.441763 -2.638804 -0.000025 0.000938 0.000001 0.000003 0.000001 -8.076763 -0.486393 -3.806046 81.129752 19.075439 -16.237088 -3.600018 0.000279 -0.003554 81.299175 7.085803 -5.785843 -2.099990 0.000326 -0.005516 84.295394 2.967073 -2.494694 -2.115774 -0.000052 -0.003673 -0.000002 0.000001 -0.000007 4.570446 11.014691 -2.160851 -0.000018 0.000010 -0.000021 10.592391 -0.524483 -2.232337 72.409725 -9.588190 7.026446 27.841816 0.000061 -0.000227 91.033424 -74.981509 75.982112 28.328840 -0.000029 0.000026 0.000020 -0.000089 -0.000000 2.466247 -1.575968 2.681851 36.373203 174.887595 -131.093323 3.217873 -1.871951 1.916512 187.100096 4.761157 73.298482 2.656093 -1.528726 1.514561 164.669236 -9.690239 80.486123 2.020883 -1.154076 1.115146 0.000005 0.000003 0.000006 9.109406 -0.517875 2.259787 102.232701 -29.308154 35.914706 3.700085 0.000154 -0.000431 94.229529 -20.963725 22.551119 2.850058 0.000206 0.000215 88.741035 -13.998818 13.696180 2.774880 -0.000012 -0.000025 0.000002 0.000000 -0.000000 9.533484 0.000211 -0.000077 98.451658 -22.133692 25.546451 3.700063 0.000201 -0.000386 97.240030 -11.112266 12.598915 2.950050 0.000203 -0.000182 95.742067 -10.932166 12.081636 2.952880 -0.000031 0.000064 0.000003 -0.000001 0.000000 9.104594 -0.042825 -1.865223 95.676340 -18.445144 20.333309 3.150050 0.000215 -0.000097 95.734138 -12.546802 13.859548 2.950030 0.000189 -0.000071 93.771025 -10.752817 11.482005 2.644325 0.000017 0.000056 0.000004 0.000000 0.000000 8.077847 -0.486695 -3.806411 87.948323 -17.552063 17.515308 3.600021 0.000201 0.014569 85.970368 -13.887132 13.429912 2.100063 0.000205 0.007551 88.028707 -11.613033 11.686513 2.125502 -0.000002 0.007516 0.000001 0.000001 0.000000 -8.207786 -6.751667 -1.599560 -0.077001 -0.000003 0.000080 -0.000002 -44.370110 0.345938 0.153719 -0.000000 -0.000000 0.000000 -44.423679 -3.043532 -0.076700 0.000000 -0.000002 -0.000006 -8.728667 10.710559 -0.000009 -0.000000 -0.000000 -0.000001 -0.000679 9.278123 0.000000 -0.000000 -0.000000 8.207792 -6.751710 -1.599556 -0.074518 -0.000003 0.000081 -0.000002 -44.370014 0.346960 0.148822 0.000002 0.000000 -0.000001 -44.423664 -3.044403 -0.074314 0.000000 -0.000002 -0.000004 -8.728671 10.710558 0.000007 -0.000000 -0.000000 0.000000 -0.000680 9.278137 -0.000000 0.000000 -0.000001 
